Coordinates
version=1
nRows=14
nColumns=40
inDegrees=yes

Units are S.I. units (second, meters, Newtons, ...)
If the header above contains a line with 'inDegrees', this indicates whether rotational values are in degrees (yes) or radians (no).

endheader
time	pelvis_tilt	pelvis_list	pelvis_rotation	pelvis_tx	pelvis_ty	pelvis_tz	hip_flexion_r	hip_adduction_r	hip_rotation_r	knee_angle_r	knee_angle_r_beta	ankle_angle_r	subtalar_angle_r	mtp_angle_r	hip_flexion_l	hip_adduction_l	hip_rotation_l	knee_angle_l	knee_angle_l_beta	ankle_angle_l	subtalar_angle_l	mtp_angle_l	lumbar_extension	lumbar_bending	lumbar_rotation	arm_flex_r	arm_add_r	arm_rot_r	elbow_flex_r	pro_sup_r	wrist_flex_r	wrist_dev_r	arm_flex_l	arm_add_l	arm_rot_l	elbow_flex_l	pro_sup_l	wrist_flex_l	wrist_dev_l
      5.31500000	      4.84388122	     -5.03778007	      0.00950197	     -0.34884271	      0.85648415	     -1.03070660	     56.83991510	      3.00072851	      0.60629917	      8.91927062	      0.15567064	     -1.01329261	      0.00000000	      0.00000000	     26.73847814	     -2.31910506	     -3.06627912	     57.81779610	      1.00911091	     17.57981970	      0.00000000	      0.00000000	    -21.15203425	      5.03416741	      3.31229499	     38.34914626	     -9.83517976	      8.74143968	     26.66551994	     85.76246022	      0.00000000	      0.00000000	     36.85215550	    -15.81584226	     18.25323730	     42.57968648	     85.88306754	      0.00000000	      0.00000000
      5.32000000	      4.96423107	     -5.10966015	      0.00267985	     -0.34808741	      0.85736598	     -1.03080669	     56.70790057	      3.08745644	      0.55745529	      8.87778406	      0.15494656	     -0.97973839	      0.00000000	      0.00000000	     26.43083061	     -2.34821751	     -2.99317841	     57.60622604	      1.00541831	     17.60384204	      0.00000000	      0.00000000	    -21.17570502	      5.14090308	      3.39154608	     37.63417393	     -9.79833385	      8.62393236	     25.98252276	     85.68601195	      0.00000000	      0.00000000	     35.98917684	    -15.68510912	     18.15232501	     42.46677647	     85.91617177	      0.00000000	      0.00000000
      5.32500000	      4.96926889	     -5.13320324	     -0.08231921	     -0.34744779	      0.85818316	     -1.03081069	     56.71270117	      3.16688023	      0.74562877	      8.92541850	      0.15577794	     -1.14777967	      0.00000000	      0.00000000	     26.25389394	     -2.35643126	     -2.99059937	     57.39066804	      1.00165612	     17.55755409	      0.00000000	      0.00000000	    -21.09843540	      5.18032829	      3.48509895	     36.96285967	     -9.71310777	      8.38845880	     25.26211726	     85.68597977	      0.00000000	      0.00000000	     35.22826206	    -15.50321627	     18.11279462	     42.15119648	     85.87858602	      0.00000000	      0.00000000
      5.33000000	      4.89894272	     -5.02425226	     -0.41866512	     -0.34692565	      0.85859853	     -1.03033310	     56.88401529	      3.40338618	      0.99193883	      9.03429835	      0.15767825	     -1.34673294	      0.00000000	      0.00000000	     26.16404824	     -2.40454964	     -3.35592985	     57.24260504	      0.99907193	     17.50176053	      0.00000000	      0.00000000	    -20.93359289	      4.97639056	      3.77073742	     36.26666755	     -9.74814543	      8.79542829	     24.59700722	     85.38903866	      0.00000000	      0.00000000	     34.45640222	    -15.45199136	     18.22162088	     41.96087236	     85.96565568	      0.00000000	      0.00000000
      5.33500000	      4.85881802	     -5.04588686	     -0.36967306	     -0.34602816	      0.85930399	     -1.03050186	     56.91353661	      3.40164530	      0.86694423	      9.01309810	      0.15730824	     -1.15292674	      0.00000000	      0.00000000	     26.04672000	     -2.36662686	     -3.27228696	     57.04691877	      0.99565656	     17.48584754	      0.00000000	      0.00000000	    -20.76122408	      5.06817279	      3.66767301	     35.57788521	     -9.50643423	      8.05653420	     23.83819562	     85.53107847	      0.00000000	      0.00000000	     33.51338405	    -15.25449707	     17.73605222	     41.71416791	     85.85549356	      0.00000000	      0.00000000
      5.34000000	      5.01214670	     -5.22107849	     -0.37687172	     -0.34524938	      0.86026878	     -1.03048199	     56.71388900	      3.54625951	      0.92531490	      8.98929185	      0.15689274	     -1.12823847	      0.00000000	      0.00000000	     25.70763430	     -2.52040627	     -3.17873031	     56.84468674	      0.99212695	     17.53121369	      0.00000000	      0.00000000	    -20.80650832	      5.26036180	      3.84210314	     34.86193821	     -9.62481462	      8.32818423	     23.17124665	     85.41997672	      0.00000000	      0.00000000	     32.79043138	    -15.07630531	     17.87143119	     41.47253184	     85.87113396	      0.00000000	      0.00000000
      5.34500000	      4.93626028	     -5.21887284	     -0.38825767	     -0.34454689	      0.86077739	     -1.03065643	     56.83344106	      3.56159087	      0.93600993	      9.05691328	      0.15807296	     -1.18367415	      0.00000000	      0.00000000	     25.64892628	     -2.42558372	     -3.07140598	     56.66874567	      0.98905619	     17.53486961	      0.00000000	      0.00000000	    -20.59959255	      5.29858815	      3.88218705	     34.16725301	     -9.57647436	      8.00325909	     22.42446476	     85.37180545	      0.00000000	      0.00000000	     31.98375540	    -14.89881311	     17.80293423	     41.25327833	     85.87349420	      0.00000000	      0.00000000
      5.35000000	      4.77364031	     -4.85038762	     -0.51110522	     -0.34402651	      0.86089594	     -1.03088380	     57.13435388	      3.40028513	      1.36811630	      9.25050073	      0.16145170	     -1.11926157	      0.00000000	      0.00000000	     25.67043915	     -2.02188835	     -3.25713005	     56.47332222	      0.98564541	     17.55239235	      0.00000000	      0.00000000	    -20.29335983	      4.93486951	      3.84473116	     33.47350842	     -9.57946500	      8.17576183	     21.82377291	     85.03316702	      0.00000000	      0.00000000	     31.17985158	    -14.81719068	     17.74064704	     41.05583286	     85.85570687	      0.00000000	      0.00000000
      5.35500000	      5.09715954	     -5.33589827	     -0.48979884	     -0.34309187	      0.86249336	     -1.03065309	     56.64155340	      3.77207074	      0.93865270	      9.07125804	      0.15832332	     -1.20799980	      0.00000000	      0.00000000	     25.12260120	     -2.56727054	     -3.16329781	     56.25539435	      0.98184185	     17.46958711	      0.00000000	      0.00000000	    -20.55157974	      5.45802402	      3.98944342	     32.87379450	     -9.51653812	      8.09131061	     21.02623670	     84.91364902	      0.00000000	      0.00000000	     30.38218739	    -14.61564821	     17.57985945	     40.67841548	     85.99929461	      0.00000000	      0.00000000
      5.36000000	      5.06877687	     -5.37640084	     -0.47591519	     -0.34245119	      0.86306794	     -1.03080515	     56.69596755	      3.78669665	      0.92934158	      9.13113258	      0.15936833	     -1.19332352	      0.00000000	      0.00000000	     25.01674004	     -2.54706405	     -3.06334380	     56.07214390	      0.97864353	     17.48853619	      0.00000000	      0.00000000	    -20.39449852	      5.54514978	      4.01905800	     32.19178532	     -9.51974302	      7.89147310	     20.35878870	     84.72726822	      0.00000000	      0.00000000	     29.60589138	    -14.42741546	     17.46812789	     40.40549354	     86.01594615	      0.00000000	      0.00000000
      5.36500000	      5.07395516	     -5.42213693	     -0.43635831	     -0.34181912	      0.86369204	     -1.03094328	     56.71117123	      3.80316366	      0.84059330	      9.19409329	      0.16046720	     -1.19014035	      0.00000000	      0.00000000	     24.88844149	     -2.53438471	     -2.96651955	     55.92443251	      0.97606548	     17.44527945	      0.00000000	      0.00000000	    -20.29967476	      5.64153865	      4.02433361	     31.53193016	     -9.44808398	      7.39484925	     19.69512364	     84.87664860	      0.00000000	      0.00000000	     28.85735392	    -14.27531077	     17.39037033	     40.18874913	     85.93884218	      0.00000000	      0.00000000
      5.37000000	      5.11444052	     -5.54042088	     -0.41706936	     -0.34103751	      0.86446950	     -1.03107284	     56.62977614	      3.87473292	      0.83013153	      9.17008474	      0.16004817	     -1.19482192	      0.00000000	      0.00000000	     24.68616031	     -2.66559575	     -2.98565455	     55.75287791	      0.97307129	     17.43562645	      0.00000000	      0.00000000	    -20.21185083	      5.80585758	      4.00852484	     30.89826829	     -9.46228431	      7.68101311	     19.01927599	     84.64025106	      0.00000000	      0.00000000	     28.10092300	    -14.09718798	     17.23279822	     39.78959579	     85.98070724	      0.00000000	      0.00000000
      5.37500000	      5.16391334	     -5.61257913	     -0.16476124	     -0.34059993	      0.86516907	     -1.03164820	     56.56652802	      3.71102033	      0.66836331	      9.18108339	      0.16024013	     -1.25496003	      0.00000000	      0.00000000	     24.55961414	     -2.55601199	     -2.62604605	     55.58512434	      0.97014343	     17.35249370	      0.00000000	      0.00000000	    -20.16927841	      6.01019065	      3.85491416	     30.29200383	     -9.40044336	      6.83350296	     18.40771263	     84.79427068	      0.00000000	      0.00000000	     27.35314308	    -13.98108679	     17.32536074	     39.62747915	     85.85302182	      0.00000000	      0.00000000
      5.38000000	      5.22765469	     -5.52059850	     -0.22396329	     -0.34026375	      0.86579414	     -1.03162989	     56.54726362	      3.71145070	      0.78405049	      9.27447577	      0.16187014	     -1.28783537	      0.00000000	      0.00000000	     24.34701982	     -2.47037993	     -2.71048300	     55.37307146	      0.96644241	     17.27648678	      0.00000000	      0.00000000	    -20.14254520	      5.90393338	      3.86347577	     29.66679851	     -9.47123417	      7.77640259	     17.88811200	     84.12650563	      0.00000000	      0.00000000	     26.68225346	    -13.91337291	     17.30617353	     39.37870915	     85.98986216	      0.00000000	      0.00000000
